<svg width="512" height="512" viewBox="0 0 512 512" fill="none" xmlns="http://www.w3.org/2000/svg">
<g clip-path="url(#clip0_1_4)">
<path d="M256 0C326.748 0 362.122 -1.73522e-05 390.603 9.80664C442.992 27.8459 484.154 69.008 502.193 121.397C512 149.878 512 185.252 512 256C512 326.748 512 362.122 502.193 390.603C484.154 442.992 442.992 484.154 390.603 502.193C362.122 512 326.748 512 256 512C185.252 512 149.878 512 121.397 502.193C69.008 484.154 27.8459 442.992 9.80664 390.603C-1.73522e-05 362.122 0 326.748 0 256C0 185.252 -1.73522e-05 149.878 9.80664 121.397C27.8459 69.008 69.008 27.8459 121.397 9.80664C149.878 -1.73522e-05 185.252 0 256 0ZM261.467 96C174.924 96.0002 106 167.635 106 256C106 344.365 174.924 416 261.467 416C299.531 416 338.404 399.589 366.778 370.503L373.681 363.397C390.372 345.469 390.102 317.117 372.873 299.525L329.373 254.195L293.142 291.19L333.044 331.933C314.409 350.96 290.447 361.143 261.467 361.143C204.596 361.142 159.726 314.069 159.726 256C159.726 197.931 204.596 150.858 261.467 150.857C289.9 150.857 315.641 162.624 334.275 181.647L372.266 142.857C343.909 113.906 304.736 96 261.467 96Z" fill="#615FFF"/>
</g>
<defs>
<clipPath id="clip0_1_4">
<rect width="512" height="512" fill="white"/>
</clipPath>
</defs>
</svg>
